<svg width="24" height="24" viewBox="0 0 24 24" fill="none" xmlns="http://www.w3.org/2000/svg">
<g id="devicon-plain:linkedin" clip-path="url(#clip0_97_106)">
<path id="Vector" d="M21.75 0.562465H2.25C1.80756 0.557962 1.3814 0.72916 1.06504 1.0385C0.74867 1.34783 0.56794 1.77003 0.5625 2.21246V21.7912C0.568923 22.233 0.750087 22.6542 1.06634 22.9628C1.3826 23.2713 1.8082 23.442 2.25 23.4375H21.75C22.1925 23.441 22.6183 23.2692 22.9345 22.9597C23.2507 22.6501 23.4316 22.228 23.4375 21.7856V2.20684C23.4296 1.76571 23.2479 1.34552 22.9319 1.0376C22.6159 0.729686 22.1912 0.558935 21.75 0.562465ZM7.34437 20.0625H3.94875V9.13684H7.34437V20.0625ZM5.65688 7.64809C5.26741 7.64846 4.88659 7.53331 4.56259 7.31721C4.23858 7.1011 3.98595 6.79376 3.83665 6.43405C3.68735 6.07434 3.6481 5.67843 3.72385 5.29641C3.7996 4.91438 3.98696 4.56341 4.26222 4.28789C4.53748 4.01236 4.88827 3.82467 5.27023 3.74856C5.65218 3.67244 6.04812 3.71132 6.40797 3.86027C6.76783 4.00923 7.07541 4.26157 7.29182 4.58537C7.50824 4.90917 7.62375 5.28988 7.62375 5.67934C7.62326 5.9382 7.57172 6.19442 7.4721 6.43333C7.37247 6.67225 7.2267 6.88917 7.04314 7.07169C6.85958 7.2542 6.64183 7.39873 6.40234 7.49699C6.16286 7.59526 5.90636 7.64533 5.6475 7.64434L5.65688 7.64809ZM20.0625 20.0625H16.6669V14.7468C16.6669 13.4812 16.6444 11.8518 14.9025 11.8518C13.1606 11.8518 12.8644 13.2318 12.8644 14.6643V20.0625H9.47437V9.13684H12.7294V10.6368H12.7744C13.2281 9.77809 14.3344 8.87246 15.9862 8.87246C19.425 8.86496 20.0625 11.1281 20.0625 14.0625V20.0625Z" fill="#2ECBFF"/>
</g>
<defs>
<clipPath id="clip0_97_106">
<rect width="24" height="24" fill="white"/>
</clipPath>
</defs>
</svg>
